<svg width="304" height="163" viewBox="0 0 304 163" fill="none" xmlns="http://www.w3.org/2000/svg">
<g filter="url(#filter0_d_1551_1688)">
<rect x="20" y="16" width="264" height="123" rx="16" fill="white" shape-rendering="crispEdges"/>
<rect x="20.5" y="16.5" width="263" height="122" rx="15.5" stroke="#E6E6E6" shape-rendering="crispEdges"/>
<path d="M36.6364 37.6307V35.8636H45.9205V37.6307H42.3239V47.5H40.233V37.6307H36.6364ZM50.1605 47.6705C49.3082 47.6705 48.5696 47.483 47.9446 47.108C47.3196 46.733 46.8348 46.2083 46.4901 45.5341C46.1491 44.8598 45.9787 44.072 45.9787 43.1705C45.9787 42.2689 46.1491 41.4792 46.4901 40.8011C46.8348 40.1231 47.3196 39.5966 47.9446 39.2216C48.5696 38.8466 49.3082 38.6591 50.1605 38.6591C51.0128 38.6591 51.7514 38.8466 52.3764 39.2216C53.0014 39.5966 53.4844 40.1231 53.8253 40.8011C54.17 41.4792 54.3423 42.2689 54.3423 43.1705C54.3423 44.072 54.17 44.8598 53.8253 45.5341C53.4844 46.2083 53.0014 46.733 52.3764 47.108C51.7514 47.483 51.0128 47.6705 50.1605 47.6705ZM50.1719 46.0227C50.634 46.0227 51.0204 45.8958 51.331 45.642C51.6416 45.3845 51.8726 45.0398 52.0241 44.608C52.1795 44.1761 52.2571 43.6951 52.2571 43.1648C52.2571 42.6307 52.1795 42.1477 52.0241 41.7159C51.8726 41.2803 51.6416 40.9337 51.331 40.6761C51.0204 40.4186 50.634 40.2898 50.1719 40.2898C49.6984 40.2898 49.3045 40.4186 48.9901 40.6761C48.6795 40.9337 48.4465 41.2803 48.2912 41.7159C48.1397 42.1477 48.0639 42.6307 48.0639 43.1648C48.0639 43.6951 48.1397 44.1761 48.2912 44.608C48.4465 45.0398 48.6795 45.3845 48.9901 45.642C49.3045 45.8958 49.6984 46.0227 50.1719 46.0227ZM60.446 38.7727V40.3636H55.429V38.7727H60.446ZM56.6676 36.6818H58.7244V44.875C58.7244 45.1515 58.7661 45.3636 58.8494 45.5114C58.9366 45.6553 59.0502 45.7538 59.1903 45.8068C59.3305 45.8598 59.4858 45.8864 59.6562 45.8864C59.785 45.8864 59.9025 45.8769 60.0085 45.858C60.1184 45.839 60.2017 45.822 60.2585 45.8068L60.6051 47.4148C60.4953 47.4527 60.3381 47.4943 60.1335 47.5398C59.9328 47.5852 59.6866 47.6117 59.3949 47.6193C58.8797 47.6345 58.4157 47.5568 58.0028 47.3864C57.59 47.2121 57.2623 46.9432 57.0199 46.5795C56.7813 46.2159 56.6638 45.7614 56.6676 45.2159V36.6818ZM64.6776 47.6761C64.1245 47.6761 63.6264 47.5777 63.1832 47.3807C62.7438 47.1799 62.3954 46.8845 62.1378 46.4943C61.884 46.1042 61.7571 45.6231 61.7571 45.0511C61.7571 44.5587 61.848 44.1515 62.0298 43.8295C62.2116 43.5076 62.4598 43.25 62.7741 43.0568C63.0885 42.8636 63.4427 42.7178 63.8366 42.6193C64.2344 42.517 64.6454 42.4432 65.0696 42.3977C65.581 42.3447 65.9957 42.2973 66.3139 42.2557C66.6321 42.2102 66.8632 42.142 67.0071 42.0511C67.1548 41.9564 67.2287 41.8106 67.2287 41.6136V41.5795C67.2287 41.1515 67.1018 40.8201 66.848 40.5852C66.5942 40.3504 66.2287 40.233 65.7514 40.233C65.2476 40.233 64.848 40.3428 64.5526 40.5625C64.2609 40.7822 64.0639 41.0417 63.9616 41.3409L62.0412 41.0682C62.1927 40.5379 62.4427 40.0947 62.7912 39.7386C63.1397 39.3788 63.5658 39.1098 64.0696 38.9318C64.5734 38.75 65.1302 38.6591 65.7401 38.6591C66.1605 38.6591 66.5791 38.7083 66.9957 38.8068C67.4124 38.9053 67.7931 39.0682 68.1378 39.2955C68.4825 39.5189 68.759 39.8239 68.9673 40.2102C69.1795 40.5966 69.2855 41.0795 69.2855 41.6591V47.5H67.3082V46.3011H67.2401C67.1151 46.5436 66.9389 46.7708 66.7116 46.983C66.4882 47.1913 66.206 47.3598 65.8651 47.4886C65.5279 47.6136 65.1321 47.6761 64.6776 47.6761ZM65.2116 46.1648C65.6245 46.1648 65.9825 46.0833 66.2855 45.9205C66.5885 45.7538 66.8215 45.5341 66.9844 45.2614C67.151 44.9886 67.2344 44.6913 67.2344 44.3693V43.3409C67.17 43.3939 67.0601 43.4432 66.9048 43.4886C66.7533 43.5341 66.5829 43.5739 66.3935 43.608C66.2041 43.642 66.0166 43.6723 65.831 43.6989C65.6454 43.7254 65.4844 43.7481 65.348 43.767C65.0412 43.8087 64.7666 43.8769 64.5241 43.9716C64.2817 44.0663 64.0904 44.1989 63.9503 44.3693C63.8101 44.536 63.7401 44.7519 63.7401 45.017C63.7401 45.3958 63.8783 45.6818 64.1548 45.875C64.4313 46.0682 64.7836 46.1648 65.2116 46.1648ZM73.4105 35.8636V47.5H71.3537V35.8636H73.4105ZM87.2898 38.7727L84.1818 47.5H81.9091L78.8011 38.7727H80.9943L83 45.2557H83.0909L85.1023 38.7727H87.2898ZM92.2798 47.6705C91.4048 47.6705 90.6491 47.4886 90.0128 47.125C89.3802 46.7576 88.8935 46.2386 88.5526 45.5682C88.2116 44.8939 88.0412 44.1004 88.0412 43.1875C88.0412 42.2898 88.2116 41.5019 88.5526 40.8239C88.8973 40.142 89.3783 39.6117 89.9957 39.233C90.6132 38.8504 91.3385 38.6591 92.1719 38.6591C92.7098 38.6591 93.2173 38.7462 93.6946 38.9205C94.1757 39.0909 94.5999 39.3561 94.9673 39.7159C95.3385 40.0758 95.6302 40.5341 95.8423 41.0909C96.0545 41.6439 96.1605 42.303 96.1605 43.0682V43.6989H89.0071V42.3125H94.1889C94.1851 41.9186 94.0999 41.5682 93.9332 41.2614C93.7666 40.9508 93.5336 40.7064 93.2344 40.5284C92.9389 40.3504 92.5942 40.2614 92.2003 40.2614C91.7798 40.2614 91.4105 40.3636 91.0923 40.5682C90.7741 40.7689 90.526 41.0341 90.348 41.3636C90.1738 41.6894 90.0848 42.0473 90.081 42.4375V43.6477C90.081 44.1553 90.1738 44.5909 90.3594 44.9545C90.545 45.3144 90.8045 45.5909 91.1378 45.7841C91.4711 45.9735 91.8613 46.0682 92.3082 46.0682C92.6075 46.0682 92.8783 46.0265 93.1207 45.9432C93.3632 45.8561 93.5734 45.7292 93.7514 45.5625C93.9295 45.3958 94.0639 45.1894 94.1548 44.9432L96.0753 45.1591C95.9541 45.6667 95.723 46.1098 95.3821 46.4886C95.045 46.8636 94.6132 47.1553 94.0866 47.3636C93.5601 47.5682 92.9579 47.6705 92.2798 47.6705ZM99.9574 42.3864V47.5H97.9006V38.7727H99.8665V40.2557H99.9688C100.17 39.767 100.49 39.3788 100.929 39.0909C101.372 38.803 101.92 38.6591 102.571 38.6591C103.173 38.6591 103.698 38.7879 104.145 39.0455C104.596 39.303 104.944 39.6761 105.19 40.1648C105.44 40.6534 105.563 41.2462 105.56 41.9432V47.5H103.503V42.2614C103.503 41.678 103.351 41.2216 103.048 40.892C102.749 40.5625 102.334 40.3977 101.804 40.3977C101.444 40.3977 101.124 40.4773 100.844 40.6364C100.567 40.7917 100.349 41.017 100.19 41.3125C100.035 41.608 99.9574 41.9659 99.9574 42.3864ZM110.889 47.6534C110.204 47.6534 109.59 47.4773 109.048 47.125C108.507 46.7727 108.079 46.2614 107.764 45.5909C107.45 44.9205 107.293 44.1061 107.293 43.1477C107.293 42.178 107.452 41.3598 107.77 40.6932C108.092 40.0227 108.526 39.517 109.071 39.1761C109.616 38.8314 110.224 38.6591 110.895 38.6591C111.406 38.6591 111.827 38.7462 112.156 38.9205C112.486 39.0909 112.747 39.2973 112.94 39.5398C113.134 39.7784 113.283 40.0038 113.389 40.2159H113.474V35.8636H115.537V47.5H113.514V46.125H113.389C113.283 46.3371 113.13 46.5625 112.929 46.8011C112.728 47.036 112.463 47.2367 112.134 47.4034C111.804 47.5701 111.389 47.6534 110.889 47.6534ZM111.463 45.9659C111.899 45.9659 112.27 45.8485 112.577 45.6136C112.884 45.375 113.116 45.0436 113.276 44.6193C113.435 44.1951 113.514 43.7008 113.514 43.1364C113.514 42.572 113.435 42.0814 113.276 41.6648C113.12 41.2481 112.889 40.9242 112.582 40.6932C112.279 40.4621 111.906 40.3466 111.463 40.3466C111.005 40.3466 110.622 40.4659 110.315 40.7045C110.009 40.9432 109.777 41.2727 109.622 41.6932C109.467 42.1136 109.389 42.5947 109.389 43.1364C109.389 43.6818 109.467 44.1686 109.622 44.5966C109.781 45.0208 110.014 45.3561 110.321 45.6023C110.632 45.8447 111.012 45.9659 111.463 45.9659ZM117.729 47.5V38.7727H119.786V47.5H117.729ZM118.763 37.5341C118.437 37.5341 118.157 37.4261 117.922 37.2102C117.687 36.9905 117.57 36.7273 117.57 36.4205C117.57 36.1098 117.687 35.8466 117.922 35.6307C118.157 35.411 118.437 35.3011 118.763 35.3011C119.092 35.3011 119.373 35.411 119.604 35.6307C119.839 35.8466 119.956 36.1098 119.956 36.4205C119.956 36.7273 119.839 36.9905 119.604 37.2102C119.373 37.4261 119.092 37.5341 118.763 37.5341ZM125.139 47.6534C124.454 47.6534 123.84 47.4773 123.298 47.125C122.757 46.7727 122.329 46.2614 122.014 45.5909C121.7 44.9205 121.543 44.1061 121.543 43.1477C121.543 42.178 121.702 41.3598 122.02 40.6932C122.342 40.0227 122.776 39.517 123.321 39.1761C123.866 38.8314 124.474 38.6591 125.145 38.6591C125.656 38.6591 126.077 38.7462 126.406 38.9205C126.736 39.0909 126.997 39.2973 127.19 39.5398C127.384 39.7784 127.533 40.0038 127.639 40.2159H127.724V35.8636H129.787V47.5H127.764V46.125H127.639C127.533 46.3371 127.38 46.5625 127.179 46.8011C126.978 47.036 126.713 47.2367 126.384 47.4034C126.054 47.5701 125.639 47.6534 125.139 47.6534ZM125.713 45.9659C126.149 45.9659 126.52 45.8485 126.827 45.6136C127.134 45.375 127.366 45.0436 127.526 44.6193C127.685 44.1951 127.764 43.7008 127.764 43.1364C127.764 42.572 127.685 42.0814 127.526 41.6648C127.37 41.2481 127.139 40.9242 126.832 40.6932C126.529 40.4621 126.156 40.3466 125.713 40.3466C125.255 40.3466 124.872 40.4659 124.565 40.7045C124.259 40.9432 124.027 41.2727 123.872 41.6932C123.717 42.1136 123.639 42.5947 123.639 43.1364C123.639 43.6818 123.717 44.1686 123.872 44.5966C124.031 45.0208 124.264 45.3561 124.571 45.6023C124.882 45.8447 125.262 45.9659 125.713 45.9659ZM135.786 47.6705C134.933 47.6705 134.195 47.483 133.57 47.108C132.945 46.733 132.46 46.2083 132.115 45.5341C131.774 44.8598 131.604 44.072 131.604 43.1705C131.604 42.2689 131.774 41.4792 132.115 40.8011C132.46 40.1231 132.945 39.5966 133.57 39.2216C134.195 38.8466 134.933 38.6591 135.786 38.6591C136.638 38.6591 137.376 38.8466 138.001 39.2216C138.626 39.5966 139.109 40.1231 139.45 40.8011C139.795 41.4792 139.967 42.2689 139.967 43.1705C139.967 44.072 139.795 44.8598 139.45 45.5341C139.109 46.2083 138.626 46.733 138.001 47.108C137.376 47.483 136.638 47.6705 135.786 47.6705ZM135.797 46.0227C136.259 46.0227 136.645 45.8958 136.956 45.642C137.267 45.3845 137.498 45.0398 137.649 44.608C137.804 44.1761 137.882 43.6951 137.882 43.1648C137.882 42.6307 137.804 42.1477 137.649 41.7159C137.498 41.2803 137.267 40.9337 136.956 40.6761C136.645 40.4186 136.259 40.2898 135.797 40.2898C135.323 40.2898 134.929 40.4186 134.615 40.6761C134.304 40.9337 134.071 41.2803 133.916 41.7159C133.765 42.1477 133.689 42.6307 133.689 43.1648C133.689 43.6951 133.765 44.1761 133.916 44.608C134.071 45.0398 134.304 45.3845 134.615 45.642C134.929 45.8958 135.323 46.0227 135.797 46.0227Z" fill="#141924"/>
<path d="M158.437 46.1667H159.687V41.1667H158.437V46.1667ZM158.999 39.6251C159.194 39.6251 159.357 39.5612 159.489 39.4334C159.621 39.3056 159.687 39.1473 159.687 38.9584C159.687 38.7577 159.621 38.5895 159.49 38.4537C159.358 38.318 159.195 38.2501 159 38.2501C158.806 38.2501 158.642 38.318 158.51 38.4537C158.378 38.5895 158.312 38.7577 158.312 38.9584C158.312 39.1473 158.378 39.3056 158.51 39.4334C158.642 39.5612 158.805 39.6251 158.999 39.6251ZM159.005 50.3334C157.856 50.3334 156.776 50.1147 155.766 49.6772C154.755 49.2397 153.871 48.6424 153.114 47.8855C152.357 47.1286 151.76 46.2442 151.323 45.2326C150.885 44.2209 150.667 43.1399 150.667 41.9897C150.667 40.8394 150.885 39.7584 151.323 38.7468C151.76 37.7351 152.357 36.8542 153.114 36.1042C153.871 35.3542 154.756 34.7605 155.767 34.323C156.779 33.8855 157.86 33.6667 159.01 33.6667C160.161 33.6667 161.241 33.8855 162.253 34.323C163.265 34.7605 164.146 35.3542 164.896 36.1042C165.646 36.8542 166.239 37.7362 166.677 38.7501C167.114 39.764 167.333 40.8455 167.333 41.9945C167.333 43.1436 167.114 44.2235 166.677 45.2341C166.239 46.2448 165.646 47.1273 164.896 47.8817C164.146 48.6361 163.264 49.2333 162.25 49.6733C161.236 50.1134 160.154 50.3334 159.005 50.3334Z" fill="#C2C2C2"/>
<rect x="204" y="32" width="64" height="20" rx="4" fill="#DCECE4"/>
<path d="M213.7 45.8C213.6 45.7 213.55 45.5806 213.55 45.4417C213.55 45.3028 213.6 45.1834 213.7 45.0834L217.5 41.3C217.688 41.1111 217.921 41.0167 218.199 41.0167C218.477 41.0167 218.711 41.1111 218.9 41.3L220.983 43.3834L225 39.3667H223.383C223.241 39.3667 223.123 39.3185 223.027 39.2221C222.931 39.1257 222.883 39.0063 222.883 38.8638C222.883 38.7213 222.931 38.6028 223.027 38.5084C223.123 38.4139 223.241 38.3667 223.383 38.3667H226.166C226.308 38.3667 226.427 38.4146 226.523 38.5104C226.619 38.6063 226.666 38.725 226.666 38.8667V41.65C226.666 41.7834 226.621 41.9 226.529 42C226.437 42.1 226.323 42.15 226.187 42.15C226.051 42.15 225.933 42.1 225.833 42C225.733 41.9 225.683 41.7834 225.683 41.65V40.1L221.666 44.1C221.478 44.2889 221.245 44.3834 220.967 44.3834C220.689 44.3834 220.455 44.2889 220.266 44.1L218.183 42.0334L214.416 45.8C214.316 45.9 214.197 45.95 214.058 45.95C213.919 45.95 213.8 45.9 213.7 45.8Z" fill="#26A25E"/>
<path d="M240.325 37.2727V46H238.744V38.8111H238.693L236.652 40.1151V38.6662L238.821 37.2727H240.325ZM245.767 46.1662C245.065 46.1662 244.463 45.9886 243.96 45.6335C243.46 45.2756 243.075 44.7599 242.805 44.0866C242.538 43.4105 242.405 42.5966 242.405 41.6449C242.408 40.6932 242.543 39.8835 242.81 39.2159C243.08 38.5455 243.464 38.0341 243.964 37.6818C244.467 37.3295 245.068 37.1534 245.767 37.1534C246.466 37.1534 247.067 37.3295 247.57 37.6818C248.072 38.0341 248.457 38.5455 248.724 39.2159C248.994 39.8864 249.129 40.696 249.129 41.6449C249.129 42.5994 248.994 43.4148 248.724 44.0909C248.457 44.7642 248.072 45.2784 247.57 45.6335C247.07 45.9886 246.469 46.1662 245.767 46.1662ZM245.767 44.8324C246.313 44.8324 246.743 44.5639 247.058 44.027C247.376 43.4872 247.536 42.6932 247.536 41.6449C247.536 40.9517 247.463 40.3693 247.318 39.8977C247.173 39.4261 246.969 39.071 246.705 38.8324C246.44 38.5909 246.128 38.4702 245.767 38.4702C245.224 38.4702 244.795 38.7401 244.48 39.2798C244.165 39.8168 244.006 40.6051 244.003 41.6449C244 42.3409 244.07 42.9261 244.212 43.4006C244.357 43.875 244.561 44.233 244.825 44.4744C245.089 44.7131 245.403 44.8324 245.767 44.8324ZM255.211 44.3636V43.9034C255.211 43.5653 255.282 43.2543 255.424 42.9702C255.569 42.6861 255.779 42.4574 256.055 42.2841C256.331 42.1108 256.664 42.0241 257.056 42.0241C257.46 42.0241 257.798 42.1108 258.071 42.2841C258.343 42.4545 258.549 42.6818 258.689 42.9659C258.831 43.25 258.902 43.5625 258.902 43.9034V44.3636C258.902 44.7017 258.831 45.0128 258.689 45.2969C258.547 45.581 258.338 45.8097 258.062 45.983C257.789 46.1563 257.454 46.2429 257.056 46.2429C256.659 46.2429 256.322 46.1563 256.047 45.983C255.771 45.8097 255.562 45.581 255.42 45.2969C255.281 45.0128 255.211 44.7017 255.211 44.3636ZM256.324 43.9034V44.3636C256.324 44.5881 256.377 44.794 256.485 44.9815C256.593 45.169 256.784 45.2628 257.056 45.2628C257.332 45.2628 257.521 45.1705 257.623 44.9858C257.728 44.7983 257.781 44.5909 257.781 44.3636V43.9034C257.781 43.6761 257.731 43.4688 257.632 43.2812C257.532 43.0909 257.341 42.9957 257.056 42.9957C256.789 42.9957 256.6 43.0909 256.49 43.2812C256.379 43.4688 256.324 43.6761 256.324 43.9034ZM250.775 39.3693V38.9091C250.775 38.5682 250.848 38.2557 250.993 37.9716C251.137 37.6875 251.348 37.4602 251.623 37.2898C251.899 37.1165 252.233 37.0298 252.625 37.0298C253.025 37.0298 253.362 37.1165 253.635 37.2898C253.91 37.4602 254.118 37.6875 254.257 37.9716C254.396 38.2557 254.466 38.5682 254.466 38.9091V39.3693C254.466 39.7102 254.395 40.0227 254.252 40.3068C254.113 40.5881 253.906 40.8139 253.63 40.9844C253.355 41.1548 253.02 41.2401 252.625 41.2401C252.224 41.2401 251.886 41.1548 251.61 40.9844C251.338 40.8139 251.13 40.5866 250.988 40.3026C250.846 40.0185 250.775 39.7074 250.775 39.3693ZM251.896 38.9091V39.3693C251.896 39.5966 251.949 39.804 252.054 39.9915C252.162 40.1761 252.352 40.2685 252.625 40.2685C252.897 40.2685 253.085 40.1761 253.187 39.9915C253.292 39.804 253.345 39.5966 253.345 39.3693V38.9091C253.345 38.6818 253.295 38.4744 253.196 38.2869C253.096 38.0966 252.906 38.0014 252.625 38.0014C252.355 38.0014 252.166 38.0966 252.058 38.2869C251.95 38.4773 251.896 38.6847 251.896 38.9091ZM251.261 46L257.261 37.2727H258.326L252.326 46H251.261Z" fill="#26A25E"/>
<path d="M37.7614 87V72.4545H42.6761C43.8125 72.4545 44.7453 72.6487 45.4744 73.0369C46.2036 73.4205 46.7434 73.9484 47.0938 74.6207C47.4441 75.2931 47.6193 76.0578 47.6193 76.9148C47.6193 77.7718 47.4441 78.5317 47.0938 79.1946C46.7434 79.8575 46.206 80.3783 45.4815 80.7571C44.7571 81.1312 43.8314 81.3182 42.7045 81.3182H38.7273V79.7273H42.6477C43.4242 79.7273 44.0492 79.6136 44.5227 79.3864C45.0009 79.1591 45.3466 78.8371 45.5597 78.4205C45.7775 77.9991 45.8864 77.4972 45.8864 76.9148C45.8864 76.3324 45.7775 75.8234 45.5597 75.3878C45.3419 74.9522 44.9938 74.616 44.5156 74.3793C44.0374 74.1378 43.4053 74.017 42.6193 74.017H39.5227V87H37.7614ZM44.608 80.4659L48.1875 87H46.142L42.6193 80.4659H44.608ZM54.5884 88.8182V70.6364H55.7532V88.8182H54.5884ZM58.5089 76.0909C58.4237 75.3712 58.078 74.8125 57.4719 74.4148C56.8659 74.017 56.1225 73.8182 55.2418 73.8182C54.5979 73.8182 54.0344 73.9223 53.5515 74.1307C53.0733 74.339 52.6992 74.6255 52.4293 74.9901C52.1642 75.3546 52.0316 75.7689 52.0316 76.233C52.0316 76.6212 52.1239 76.955 52.3086 77.2344C52.498 77.509 52.7395 77.7386 53.033 77.9233C53.3266 78.1032 53.6344 78.2524 53.9563 78.3707C54.2783 78.4844 54.5742 78.5767 54.8441 78.6477L56.3214 79.0455C56.7002 79.1449 57.1216 79.2822 57.5856 79.4574C58.0543 79.6326 58.5018 79.8717 58.9279 80.1747C59.3588 80.473 59.7139 80.8565 59.9933 81.3253C60.2726 81.794 60.4123 82.3693 60.4123 83.0511C60.4123 83.8371 60.2063 84.5473 59.7944 85.1818C59.3872 85.8163 58.7906 86.3205 58.0046 86.6946C57.2234 87.0687 56.274 87.2557 55.1566 87.2557C54.1149 87.2557 53.2129 87.0876 52.4506 86.7514C51.6931 86.4152 51.0965 85.9465 50.6609 85.3452C50.23 84.7438 49.9862 84.0455 49.9293 83.25H51.7475C51.7949 83.7992 51.9795 84.2538 52.3015 84.6136C52.6282 84.9687 53.0401 85.2339 53.5373 85.4091C54.0392 85.5795 54.579 85.6648 55.1566 85.6648C55.829 85.6648 56.4326 85.5559 56.9677 85.3381C57.5027 85.1155 57.9265 84.8078 58.239 84.4148C58.5515 84.017 58.7077 83.553 58.7077 83.0227C58.7077 82.5398 58.5728 82.1468 58.3029 81.8438C58.033 81.5407 57.6779 81.2945 57.2376 81.1051C56.7972 80.9157 56.3214 80.75 55.81 80.608L54.0202 80.0966C52.8839 79.7699 51.9843 79.3035 51.3214 78.6974C50.6585 78.0914 50.3271 77.2983 50.3271 76.3182C50.3271 75.5038 50.5472 74.7936 50.9876 74.1875C51.4326 73.5767 52.0292 73.1032 52.7773 72.767C53.5302 72.4261 54.3706 72.2557 55.2987 72.2557C56.2362 72.2557 57.0695 72.4238 57.7987 72.7599C58.5278 73.0914 59.1055 73.5459 59.5316 74.1236C59.9625 74.7012 60.1897 75.357 60.2134 76.0909H58.5089ZM73.5923 87.1989C72.6548 87.1989 71.8191 87.0379 71.0852 86.7159C70.3561 86.3939 69.776 85.9465 69.3452 85.3736C68.919 84.7959 68.687 84.1259 68.6491 83.3636H70.4389C70.4768 83.8324 70.6378 84.2372 70.9219 84.5781C71.206 84.9143 71.5777 85.1747 72.0369 85.3594C72.4962 85.544 73.0052 85.6364 73.5639 85.6364C74.1889 85.6364 74.7429 85.5275 75.2259 85.3097C75.7088 85.0919 76.0876 84.7888 76.3622 84.4006C76.6368 84.0123 76.7741 83.5625 76.7741 83.0511C76.7741 82.5161 76.6416 82.045 76.3764 81.6378C76.1113 81.2259 75.723 80.9039 75.2116 80.6719C74.7003 80.4399 74.0753 80.3239 73.3366 80.3239H72.1719V78.7614H73.3366C73.9143 78.7614 74.4209 78.6572 74.8565 78.4489C75.2969 78.2405 75.6402 77.947 75.8864 77.5682C76.1373 77.1894 76.2628 76.7443 76.2628 76.233C76.2628 75.7405 76.1539 75.312 75.9361 74.9474C75.7183 74.5829 75.4105 74.2988 75.0128 74.0952C74.6198 73.8916 74.1558 73.7898 73.6207 73.7898C73.1188 73.7898 72.6454 73.8821 72.2003 74.0668C71.7599 74.2467 71.4001 74.5095 71.1207 74.8551C70.8414 75.196 70.6899 75.608 70.6662 76.0909H68.9616C68.9901 75.3286 69.2197 74.661 69.6506 74.0881C70.0814 73.5104 70.6449 73.0606 71.3409 72.7386C72.0417 72.4167 72.8111 72.2557 73.6491 72.2557C74.5488 72.2557 75.3205 72.438 75.9645 72.8026C76.6084 73.1624 77.1032 73.6383 77.4489 74.2301C77.7945 74.822 77.9673 75.4612 77.9673 76.1477C77.9673 76.9669 77.7519 77.6652 77.321 78.2429C76.8949 78.8205 76.3149 79.2206 75.581 79.4432V79.5568C76.4995 79.7083 77.2169 80.099 77.733 80.7287C78.2491 81.3537 78.5071 82.1278 78.5071 83.0511C78.5071 83.8419 78.2917 84.5521 77.8608 85.1818C77.4347 85.8068 76.8523 86.2992 76.1136 86.6591C75.375 87.0189 74.5346 87.1989 73.5923 87.1989ZM82.2127 87.1136C81.8623 87.1136 81.5617 86.9882 81.3107 86.7372C81.0598 86.4863 80.9343 86.1856 80.9343 85.8352C80.9343 85.4848 81.0598 85.1842 81.3107 84.9332C81.5617 84.6823 81.8623 84.5568 82.2127 84.5568C82.5631 84.5568 82.8638 84.6823 83.1147 84.9332C83.3656 85.1842 83.4911 85.4848 83.4911 85.8352C83.4911 86.0672 83.4319 86.2803 83.3136 86.4744C83.1999 86.6686 83.046 86.8248 82.8519 86.9432C82.6625 87.0568 82.4495 87.1136 82.2127 87.1136ZM90.723 87.1989C89.8897 87.1989 89.1392 87.0331 88.4716 86.7017C87.804 86.3703 87.2689 85.9157 86.8665 85.3381C86.464 84.7604 86.2438 84.1023 86.206 83.3636H87.9105C87.9768 84.0218 88.2751 84.5663 88.8054 84.9972C89.3404 85.4233 89.9796 85.6364 90.723 85.6364C91.3196 85.6364 91.8499 85.4967 92.3139 85.2173C92.7827 84.938 93.1496 84.5545 93.4148 84.0668C93.6847 83.5743 93.8196 83.018 93.8196 82.3977C93.8196 81.7633 93.6799 81.1974 93.4006 80.7003C93.1259 80.1984 92.7472 79.803 92.2642 79.5142C91.7813 79.2254 91.2296 79.0786 90.6094 79.0739C90.1643 79.0691 89.7074 79.1378 89.2386 79.2798C88.7699 79.4171 88.384 79.5947 88.081 79.8125L86.4332 79.6136L87.3139 72.4545H94.8707V74.017H88.7912L88.2798 78.3068H88.3651C88.6634 78.0701 89.0374 77.8736 89.4872 77.7173C89.937 77.5611 90.4058 77.483 90.8935 77.483C91.7836 77.483 92.5767 77.696 93.2727 78.1222C93.9735 78.5436 94.5227 79.1212 94.9205 79.8551C95.3229 80.589 95.5241 81.4271 95.5241 82.3693C95.5241 83.2973 95.3158 84.1259 94.8991 84.8551C94.4872 85.5795 93.919 86.1525 93.1946 86.5739C92.4702 86.9905 91.6463 87.1989 90.723 87.1989ZM98.0046 84.017V82.5682L104.397 72.4545H105.448V74.6989H104.738L99.908 82.3409V82.4545H108.516V84.017H98.0046ZM104.851 87V83.5767V82.902V72.4545H106.527V87H104.851ZM115.922 87.1989C114.852 87.1989 113.94 86.9077 113.188 86.3253C112.435 85.7382 111.859 84.8883 111.462 83.7756C111.064 82.6581 110.865 81.3087 110.865 79.7273C110.865 78.1553 111.064 76.813 111.462 75.7003C111.864 74.5829 112.442 73.7306 113.195 73.1435C113.952 72.5516 114.861 72.2557 115.922 72.2557C116.982 72.2557 117.889 72.5516 118.642 73.1435C119.4 73.7306 119.977 74.5829 120.375 75.7003C120.777 76.813 120.979 78.1553 120.979 79.7273C120.979 81.3087 120.78 82.6581 120.382 83.7756C119.984 84.8883 119.409 85.7382 118.656 86.3253C117.903 86.9077 116.992 87.1989 115.922 87.1989ZM115.922 85.6364C116.982 85.6364 117.806 85.125 118.393 84.1023C118.981 83.0795 119.274 81.6212 119.274 79.7273C119.274 78.4678 119.139 77.3954 118.869 76.5099C118.604 75.6245 118.221 74.9498 117.719 74.4858C117.222 74.0218 116.623 73.7898 115.922 73.7898C114.871 73.7898 114.049 74.3082 113.457 75.3452C112.866 76.3774 112.57 77.8381 112.57 79.7273C112.57 80.9867 112.702 82.0568 112.967 82.9375C113.232 83.8182 113.614 84.4882 114.111 84.9474C114.613 85.4067 115.216 85.6364 115.922 85.6364ZM124.42 87.1136C124.069 87.1136 123.769 86.9882 123.518 86.7372C123.267 86.4863 123.141 86.1856 123.141 85.8352C123.141 85.4848 123.267 85.1842 123.518 84.9332C123.769 84.6823 124.069 84.5568 124.42 84.5568C124.77 84.5568 125.071 84.6823 125.322 84.9332C125.573 85.1842 125.698 85.4848 125.698 85.8352C125.698 86.0672 125.639 86.2803 125.521 86.4744C125.407 86.6686 125.253 86.8248 125.059 86.9432C124.87 87.0568 124.656 87.1136 124.42 87.1136ZM128.678 87V85.7216L133.479 80.4659C134.042 79.8504 134.506 79.3153 134.871 78.8608C135.235 78.4015 135.505 77.9706 135.68 77.5682C135.86 77.161 135.95 76.7348 135.95 76.2898C135.95 75.7784 135.827 75.3357 135.581 74.9616C135.339 74.5876 135.008 74.2988 134.587 74.0952C134.165 73.8916 133.692 73.7898 133.166 73.7898C132.607 73.7898 132.12 73.9058 131.703 74.1378C131.291 74.3651 130.972 74.6847 130.744 75.0966C130.522 75.5085 130.411 75.9915 130.411 76.5455H128.734C128.734 75.6932 128.931 74.9451 129.324 74.3011C129.717 73.6572 130.252 73.1553 130.929 72.7955C131.611 72.4356 132.375 72.2557 133.223 72.2557C134.075 72.2557 134.83 72.4356 135.489 72.7955C136.147 73.1553 136.663 73.6406 137.037 74.2514C137.411 74.8622 137.598 75.5417 137.598 76.2898C137.598 76.8248 137.501 77.348 137.307 77.8594C137.117 78.366 136.786 78.9318 136.312 79.5568C135.844 80.1771 135.193 80.9347 134.359 81.8295L131.092 85.3239V85.4375H137.854V87H128.678ZM145.531 87.1989C144.461 87.1989 143.55 86.9077 142.797 86.3253C142.044 85.7382 141.469 84.8883 141.071 83.7756C140.673 82.6581 140.474 81.3087 140.474 79.7273C140.474 78.1553 140.673 76.813 141.071 75.7003C141.473 74.5829 142.051 73.7306 142.804 73.1435C143.562 72.5516 144.471 72.2557 145.531 72.2557C146.592 72.2557 147.499 72.5516 148.251 73.1435C149.009 73.7306 149.587 74.5829 149.984 75.7003C150.387 76.813 150.588 78.1553 150.588 79.7273C150.588 81.3087 150.389 82.6581 149.991 83.7756C149.594 84.8883 149.018 85.7382 148.266 86.3253C147.513 86.9077 146.601 87.1989 145.531 87.1989ZM145.531 85.6364C146.592 85.6364 147.416 85.125 148.003 84.1023C148.59 83.0795 148.884 81.6212 148.884 79.7273C148.884 78.4678 148.749 77.3954 148.479 76.5099C148.214 75.6245 147.83 74.9498 147.328 74.4858C146.831 74.0218 146.232 73.7898 145.531 73.7898C144.48 73.7898 143.659 74.3082 143.067 75.3452C142.475 76.3774 142.179 77.8381 142.179 79.7273C142.179 80.9867 142.312 82.0568 142.577 82.9375C142.842 83.8182 143.223 84.4882 143.72 84.9474C144.222 85.4067 144.826 85.6364 145.531 85.6364ZM158.031 87.1989C156.961 87.1989 156.05 86.9077 155.297 86.3253C154.544 85.7382 153.969 84.8883 153.571 83.7756C153.173 82.6581 152.974 81.3087 152.974 79.7273C152.974 78.1553 153.173 76.813 153.571 75.7003C153.973 74.5829 154.551 73.7306 155.304 73.1435C156.062 72.5516 156.971 72.2557 158.031 72.2557C159.092 72.2557 159.999 72.5516 160.751 73.1435C161.509 73.7306 162.087 74.5829 162.484 75.7003C162.887 76.813 163.088 78.1553 163.088 79.7273C163.088 81.3087 162.889 82.6581 162.491 83.7756C162.094 84.8883 161.518 85.7382 160.766 86.3253C160.013 86.9077 159.101 87.1989 158.031 87.1989ZM158.031 85.6364C159.092 85.6364 159.916 85.125 160.503 84.1023C161.09 83.0795 161.384 81.6212 161.384 79.7273C161.384 78.4678 161.249 77.3954 160.979 76.5099C160.714 75.6245 160.33 74.9498 159.828 74.4858C159.331 74.0218 158.732 73.7898 158.031 73.7898C156.98 73.7898 156.159 74.3082 155.567 75.3452C154.975 76.3774 154.679 77.8381 154.679 79.7273C154.679 80.9867 154.812 82.0568 155.077 82.9375C155.342 83.8182 155.723 84.4882 156.22 84.9474C156.722 85.4067 157.326 85.6364 158.031 85.6364ZM167.808 85.0114L167.694 85.7784C167.613 86.3182 167.49 86.8958 167.325 87.5114C167.164 88.1269 166.996 88.7069 166.82 89.2514C166.645 89.7959 166.501 90.2292 166.387 90.5511H165.109C165.17 90.2481 165.251 89.848 165.35 89.3509C165.45 88.8537 165.549 88.2973 165.648 87.6818C165.753 87.071 165.838 86.446 165.904 85.8068L165.989 85.0114H167.808ZM175.121 87.1989C174.051 87.1989 173.14 86.9077 172.387 86.3253C171.634 85.7382 171.059 84.8883 170.661 83.7756C170.263 82.6581 170.064 81.3087 170.064 79.7273C170.064 78.1553 170.263 76.813 170.661 75.7003C171.063 74.5829 171.641 73.7306 172.394 73.1435C173.151 72.5516 174.06 72.2557 175.121 72.2557C176.182 72.2557 177.088 72.5516 177.841 73.1435C178.599 73.7306 179.176 74.5829 179.574 75.7003C179.977 76.813 180.178 78.1553 180.178 79.7273C180.178 81.3087 179.979 82.6581 179.581 83.7756C179.184 84.8883 178.608 85.7382 177.855 86.3253C177.103 86.9077 176.191 87.1989 175.121 87.1989ZM175.121 85.6364C176.182 85.6364 177.006 85.125 177.593 84.1023C178.18 83.0795 178.473 81.6212 178.473 79.7273C178.473 78.4678 178.338 77.3954 178.069 76.5099C177.803 75.6245 177.42 74.9498 176.918 74.4858C176.421 74.0218 175.822 73.7898 175.121 73.7898C174.07 73.7898 173.248 74.3082 172.657 75.3452C172.065 76.3774 171.769 77.8381 171.769 79.7273C171.769 80.9867 171.901 82.0568 172.167 82.9375C172.432 83.8182 172.813 84.4882 173.31 84.9474C173.812 85.4067 174.416 85.6364 175.121 85.6364ZM187.621 87.1989C186.551 87.1989 185.64 86.9077 184.887 86.3253C184.134 85.7382 183.559 84.8883 183.161 83.7756C182.763 82.6581 182.564 81.3087 182.564 79.7273C182.564 78.1553 182.763 76.813 183.161 75.7003C183.563 74.5829 184.141 73.7306 184.894 73.1435C185.651 72.5516 186.56 72.2557 187.621 72.2557C188.682 72.2557 189.588 72.5516 190.341 73.1435C191.099 73.7306 191.676 74.5829 192.074 75.7003C192.477 76.813 192.678 78.1553 192.678 79.7273C192.678 81.3087 192.479 82.6581 192.081 83.7756C191.684 84.8883 191.108 85.7382 190.355 86.3253C189.603 86.9077 188.691 87.1989 187.621 87.1989ZM187.621 85.6364C188.682 85.6364 189.506 85.125 190.093 84.1023C190.68 83.0795 190.973 81.6212 190.973 79.7273C190.973 78.4678 190.838 77.3954 190.569 76.5099C190.303 75.6245 189.92 74.9498 189.418 74.4858C188.921 74.0218 188.322 73.7898 187.621 73.7898C186.57 73.7898 185.748 74.3082 185.157 75.3452C184.565 76.3774 184.269 77.8381 184.269 79.7273C184.269 80.9867 184.401 82.0568 184.667 82.9375C184.932 83.8182 185.313 84.4882 185.81 84.9474C186.312 85.4067 186.916 85.6364 187.621 85.6364Z" fill="#3F3F3F"/>
<path d="M39.6989 120.119C39.1136 120.119 38.5966 120.016 38.1477 119.808C37.7017 119.598 37.3537 119.31 37.1037 118.943C36.8537 118.574 36.7301 118.153 36.733 117.682C36.7301 117.312 36.8026 116.972 36.9503 116.659C37.098 116.344 37.2997 116.081 37.5554 115.871C37.8139 115.658 38.1023 115.523 38.4205 115.466V115.415C38.0028 115.307 37.6705 115.072 37.4233 114.712C37.1761 114.348 37.054 113.935 37.0568 113.472C37.054 113.028 37.1662 112.632 37.3935 112.283C37.6207 111.933 37.9332 111.658 38.331 111.456C38.7315 111.254 39.1875 111.153 39.6989 111.153C40.2045 111.153 40.6563 111.254 41.054 111.456C41.4517 111.658 41.7642 111.933 41.9915 112.283C42.2216 112.632 42.3381 113.028 42.3409 113.472C42.3381 113.935 42.2116 114.348 41.9616 114.712C41.7145 115.072 41.3864 115.307 40.9773 115.415V115.466C41.2926 115.523 41.5767 115.658 41.8295 115.871C42.0824 116.081 42.2841 116.344 42.4347 116.659C42.5852 116.972 42.6619 117.312 42.6648 117.682C42.6619 118.153 42.5341 118.574 42.2812 118.943C42.0312 119.31 41.6832 119.598 41.2372 119.808C40.794 120.016 40.2813 120.119 39.6989 120.119ZM39.6989 119.182C40.0938 119.182 40.4347 119.118 40.7216 118.99C41.0085 118.862 41.2301 118.682 41.3864 118.449C41.5426 118.216 41.6222 117.943 41.625 117.631C41.6222 117.301 41.5369 117.01 41.3693 116.757C41.2017 116.504 40.973 116.305 40.6832 116.161C40.3963 116.016 40.0682 115.943 39.6989 115.943C39.3267 115.943 38.9943 116.016 38.7017 116.161C38.4119 116.305 38.1832 116.504 38.0156 116.757C37.8509 117.01 37.7699 117.301 37.7727 117.631C37.7699 117.943 37.8452 118.216 37.9986 118.449C38.1548 118.682 38.3778 118.862 38.6676 118.99C38.9574 119.118 39.3011 119.182 39.6989 119.182ZM39.6989 115.04C40.0114 115.04 40.2884 114.977 40.5298 114.852C40.7741 114.727 40.9659 114.553 41.1051 114.328C41.2443 114.104 41.3153 113.841 41.3182 113.54C41.3153 113.244 41.2457 112.987 41.1094 112.768C40.973 112.547 40.7841 112.376 40.5426 112.257C40.3011 112.135 40.0199 112.074 39.6989 112.074C39.3722 112.074 39.0866 112.135 38.8423 112.257C38.598 112.376 38.4091 112.547 38.2756 112.768C38.142 112.987 38.0767 113.244 38.0795 113.54C38.0767 113.841 38.1435 114.104 38.2798 114.328C38.419 114.553 38.6108 114.727 38.8551 114.852C39.0994 114.977 39.3807 115.04 39.6989 115.04ZM47.1445 120.119C46.5025 120.119 45.9556 119.945 45.5039 119.595C45.0522 119.243 44.707 118.733 44.4684 118.065C44.2298 117.395 44.1104 116.585 44.1104 115.636C44.1104 114.693 44.2298 113.888 44.4684 113.22C44.7099 112.55 45.0565 112.038 45.5082 111.686C45.9627 111.331 46.5082 111.153 47.1445 111.153C47.7809 111.153 48.3249 111.331 48.7766 111.686C49.2312 112.038 49.5778 112.55 49.8164 113.22C50.0579 113.888 50.1786 114.693 50.1786 115.636C50.1786 116.585 50.0593 117.395 49.8207 118.065C49.582 118.733 49.2369 119.243 48.7852 119.595C48.3335 119.945 47.7866 120.119 47.1445 120.119ZM47.1445 119.182C47.7809 119.182 48.2752 118.875 48.6275 118.261C48.9798 117.648 49.1559 116.773 49.1559 115.636C49.1559 114.881 49.0749 114.237 48.913 113.706C48.7539 113.175 48.5238 112.77 48.2227 112.491C47.9244 112.213 47.565 112.074 47.1445 112.074C46.5138 112.074 46.021 112.385 45.6658 113.007C45.3107 113.626 45.1332 114.503 45.1332 115.636C45.1332 116.392 45.2127 117.034 45.3718 117.562C45.5309 118.091 45.7596 118.493 46.0579 118.768C46.359 119.044 46.7212 119.182 47.1445 119.182ZM54.6445 120.119C54.0025 120.119 53.4556 119.945 53.0039 119.595C52.5522 119.243 52.207 118.733 51.9684 118.065C51.7298 117.395 51.6104 116.585 51.6104 115.636C51.6104 114.693 51.7298 113.888 51.9684 113.22C52.2099 112.55 52.5565 112.038 53.0082 111.686C53.4627 111.331 54.0082 111.153 54.6445 111.153C55.2809 111.153 55.8249 111.331 56.2766 111.686C56.7312 112.038 57.0778 112.55 57.3164 113.22C57.5579 113.888 57.6786 114.693 57.6786 115.636C57.6786 116.585 57.5593 117.395 57.3207 118.065C57.082 118.733 56.7369 119.243 56.2852 119.595C55.8335 119.945 55.2866 120.119 54.6445 120.119ZM54.6445 119.182C55.2809 119.182 55.7752 118.875 56.1275 118.261C56.4798 117.648 56.6559 116.773 56.6559 115.636C56.6559 114.881 56.5749 114.237 56.413 113.706C56.2539 113.175 56.0238 112.77 55.7227 112.491C55.4244 112.213 55.065 112.074 54.6445 112.074C54.0138 112.074 53.521 112.385 53.1658 113.007C52.8107 113.626 52.6332 114.503 52.6332 115.636C52.6332 116.392 52.7127 117.034 52.8718 117.562C53.0309 118.091 53.2596 118.493 53.5579 118.768C53.859 119.044 54.2212 119.182 54.6445 119.182ZM59.7433 120.068C59.533 120.068 59.3526 119.993 59.2021 119.842C59.0515 119.692 58.9762 119.511 58.9762 119.301C58.9762 119.091 59.0515 118.911 59.2021 118.76C59.3526 118.609 59.533 118.534 59.7433 118.534C59.9535 118.534 60.1339 118.609 60.2844 118.76C60.435 118.911 60.5103 119.091 60.5103 119.301C60.5103 119.44 60.4748 119.568 60.4038 119.685C60.3356 119.801 60.2433 119.895 60.1268 119.966C60.0131 120.034 59.8853 120.068 59.7433 120.068ZM64.8398 120.119C64.1978 120.119 63.6509 119.945 63.1992 119.595C62.7475 119.243 62.4023 118.733 62.1637 118.065C61.9251 117.395 61.8058 116.585 61.8058 115.636C61.8058 114.693 61.9251 113.888 62.1637 113.22C62.4052 112.55 62.7518 112.038 63.2035 111.686C63.658 111.331 64.2035 111.153 64.8398 111.153C65.4762 111.153 66.0202 111.331 66.4719 111.686C66.9265 112.038 67.2731 112.55 67.5117 113.22C67.7532 113.888 67.8739 114.693 67.8739 115.636C67.8739 116.585 67.7546 117.395 67.516 118.065C67.2773 118.733 66.9322 119.243 66.4805 119.595C66.0288 119.945 65.4819 120.119 64.8398 120.119ZM64.8398 119.182C65.4762 119.182 65.9705 118.875 66.3228 118.261C66.6751 117.648 66.8512 116.773 66.8512 115.636C66.8512 114.881 66.7702 114.237 66.6083 113.706C66.4492 113.175 66.2191 112.77 65.918 112.491C65.6197 112.213 65.2603 112.074 64.8398 112.074C64.2092 112.074 63.7163 112.385 63.3612 113.007C63.006 113.626 62.8285 114.503 62.8285 115.636C62.8285 116.392 62.908 117.034 63.0671 117.562C63.2262 118.091 63.4549 118.493 63.7532 118.768C64.0543 119.044 64.4165 119.182 64.8398 119.182ZM72.3398 120.119C71.6978 120.119 71.1509 119.945 70.6992 119.595C70.2475 119.243 69.9023 118.733 69.6637 118.065C69.4251 117.395 69.3058 116.585 69.3058 115.636C69.3058 114.693 69.4251 113.888 69.6637 113.22C69.9052 112.55 70.2518 112.038 70.7035 111.686C71.158 111.331 71.7035 111.153 72.3398 111.153C72.9762 111.153 73.5202 111.331 73.9719 111.686C74.4265 112.038 74.7731 112.55 75.0117 113.22C75.2532 113.888 75.3739 114.693 75.3739 115.636C75.3739 116.585 75.2546 117.395 75.016 118.065C74.7773 118.733 74.4322 119.243 73.9805 119.595C73.5288 119.945 72.9819 120.119 72.3398 120.119ZM72.3398 119.182C72.9762 119.182 73.4705 118.875 73.8228 118.261C74.1751 117.648 74.3512 116.773 74.3512 115.636C74.3512 114.881 74.2702 114.237 74.1083 113.706C73.9492 113.175 73.7191 112.77 73.418 112.491C73.1197 112.213 72.7603 112.074 72.3398 112.074C71.7092 112.074 71.2163 112.385 70.8612 113.007C70.506 113.626 70.3285 114.503 70.3285 115.636C70.3285 116.392 70.408 117.034 70.5671 117.562C70.7262 118.091 70.9549 118.493 71.2532 118.768C71.5543 119.044 71.9165 119.182 72.3398 119.182ZM79.8398 120.119C79.1978 120.119 78.6509 119.945 78.1992 119.595C77.7475 119.243 77.4023 118.733 77.1637 118.065C76.9251 117.395 76.8058 116.585 76.8058 115.636C76.8058 114.693 76.9251 113.888 77.1637 113.22C77.4052 112.55 77.7518 112.038 78.2035 111.686C78.658 111.331 79.2035 111.153 79.8398 111.153C80.4762 111.153 81.0202 111.331 81.4719 111.686C81.9265 112.038 82.2731 112.55 82.5117 113.22C82.7532 113.888 82.8739 114.693 82.8739 115.636C82.8739 116.585 82.7546 117.395 82.516 118.065C82.2773 118.733 81.9322 119.243 81.4805 119.595C81.0288 119.945 80.4819 120.119 79.8398 120.119ZM79.8398 119.182C80.4762 119.182 80.9705 118.875 81.3228 118.261C81.6751 117.648 81.8512 116.773 81.8512 115.636C81.8512 114.881 81.7702 114.237 81.6083 113.706C81.4492 113.175 81.2191 112.77 80.918 112.491C80.6197 112.213 80.2603 112.074 79.8398 112.074C79.2092 112.074 78.7163 112.385 78.3612 113.007C78.006 113.626 77.8285 114.503 77.8285 115.636C77.8285 116.392 77.908 117.034 78.0671 117.562C78.2262 118.091 78.4549 118.493 78.7532 118.768C79.0543 119.044 79.4165 119.182 79.8398 119.182ZM93.2376 113.455L90.8171 120H89.7944L87.3739 113.455H88.4648L90.2717 118.67H90.3398L92.1467 113.455H93.2376ZM97.0749 120.136C96.4442 120.136 95.9002 119.997 95.4428 119.719C94.9883 119.438 94.6374 119.045 94.3903 118.543C94.146 118.037 94.0238 117.449 94.0238 116.778C94.0238 116.108 94.146 115.517 94.3903 115.006C94.6374 114.491 94.9812 114.091 95.4215 113.804C95.8647 113.514 96.3817 113.369 96.9727 113.369C97.3136 113.369 97.6502 113.426 97.9826 113.54C98.315 113.653 98.6175 113.838 98.8903 114.094C99.163 114.347 99.3803 114.682 99.5423 115.099C99.7042 115.517 99.7852 116.031 99.7852 116.642V117.068H94.7397V116.199H98.7624C98.7624 115.83 98.6886 115.5 98.5408 115.21C98.396 114.92 98.1886 114.692 97.9187 114.524C97.6516 114.357 97.3363 114.273 96.9727 114.273C96.5721 114.273 96.2255 114.372 95.9329 114.571C95.6431 114.767 95.4201 115.023 95.2638 115.338C95.1076 115.653 95.0295 115.991 95.0295 116.352V116.932C95.0295 117.426 95.1147 117.845 95.2852 118.189C95.4585 118.53 95.6985 118.79 96.0053 118.969C96.3121 119.145 96.6687 119.233 97.0749 119.233C97.3391 119.233 97.5778 119.196 97.7908 119.122C98.0067 119.045 98.1928 118.932 98.3491 118.781C98.5053 118.628 98.6261 118.437 98.7113 118.21L99.6829 118.483C99.5806 118.812 99.4087 119.102 99.1673 119.352C98.9258 119.599 98.6275 119.793 98.2724 119.932C97.9173 120.068 97.5181 120.136 97.0749 120.136ZM102.321 116.062V120H101.315V113.455H102.287V114.477H102.372C102.525 114.145 102.758 113.878 103.071 113.676C103.383 113.472 103.787 113.369 104.281 113.369C104.724 113.369 105.112 113.46 105.444 113.642C105.777 113.821 106.035 114.094 106.22 114.46C106.404 114.824 106.497 115.284 106.497 115.841V120H105.491V115.909C105.491 115.395 105.358 114.994 105.091 114.707C104.824 114.418 104.457 114.273 103.991 114.273C103.67 114.273 103.383 114.342 103.13 114.482C102.88 114.621 102.683 114.824 102.538 115.091C102.393 115.358 102.321 115.682 102.321 116.062ZM110.806 120.136C110.261 120.136 109.779 119.999 109.362 119.723C108.944 119.445 108.617 119.053 108.381 118.547C108.146 118.038 108.028 117.438 108.028 116.744C108.028 116.057 108.146 115.46 108.381 114.955C108.617 114.449 108.945 114.058 109.366 113.783C109.786 113.507 110.272 113.369 110.823 113.369C111.249 113.369 111.586 113.44 111.833 113.582C112.083 113.722 112.273 113.881 112.404 114.06C112.538 114.236 112.641 114.381 112.715 114.494H112.8V111.273H113.806V120H112.835V118.994H112.715C112.641 119.114 112.536 119.264 112.4 119.446C112.263 119.625 112.069 119.786 111.816 119.928C111.563 120.067 111.227 120.136 110.806 120.136ZM110.942 119.233C111.346 119.233 111.687 119.128 111.965 118.918C112.244 118.705 112.455 118.411 112.6 118.036C112.745 117.658 112.817 117.222 112.817 116.727C112.817 116.239 112.746 115.811 112.604 115.445C112.462 115.075 112.252 114.788 111.974 114.584C111.695 114.376 111.352 114.273 110.942 114.273C110.516 114.273 110.161 114.382 109.877 114.601C109.596 114.817 109.384 115.111 109.242 115.483C109.103 115.852 109.033 116.267 109.033 116.727C109.033 117.193 109.104 117.616 109.246 117.997C109.391 118.375 109.604 118.676 109.886 118.901C110.17 119.122 110.522 119.233 110.942 119.233ZM117.714 120.153C117.299 120.153 116.923 120.075 116.585 119.919C116.246 119.76 115.978 119.531 115.779 119.233C115.58 118.932 115.481 118.568 115.481 118.142C115.481 117.767 115.555 117.463 115.702 117.23C115.85 116.994 116.048 116.81 116.295 116.676C116.542 116.543 116.815 116.443 117.113 116.378C117.414 116.31 117.717 116.256 118.021 116.216C118.418 116.165 118.741 116.126 118.988 116.101C119.238 116.072 119.42 116.026 119.533 115.96C119.65 115.895 119.708 115.781 119.708 115.619V115.585C119.708 115.165 119.593 114.838 119.363 114.605C119.136 114.372 118.79 114.256 118.327 114.256C117.847 114.256 117.471 114.361 117.198 114.571C116.925 114.781 116.734 115.006 116.623 115.244L115.668 114.903C115.839 114.506 116.066 114.196 116.35 113.974C116.637 113.75 116.95 113.594 117.288 113.506C117.629 113.415 117.964 113.369 118.293 113.369C118.504 113.369 118.745 113.395 119.018 113.446C119.293 113.494 119.559 113.595 119.815 113.749C120.073 113.902 120.288 114.134 120.458 114.443C120.629 114.753 120.714 115.168 120.714 115.688V120H119.708V119.114H119.657C119.589 119.256 119.475 119.408 119.316 119.57C119.157 119.732 118.945 119.869 118.681 119.983C118.417 120.097 118.094 120.153 117.714 120.153ZM117.867 119.25C118.265 119.25 118.6 119.172 118.873 119.016C119.148 118.859 119.356 118.658 119.495 118.411C119.637 118.163 119.708 117.903 119.708 117.631V116.71C119.665 116.761 119.572 116.808 119.427 116.851C119.285 116.891 119.12 116.926 118.933 116.957C118.748 116.986 118.567 117.011 118.391 117.034C118.218 117.054 118.077 117.071 117.969 117.085C117.708 117.119 117.464 117.175 117.237 117.251C117.012 117.325 116.83 117.437 116.691 117.588C116.555 117.736 116.487 117.937 116.487 118.193C116.487 118.543 116.616 118.807 116.874 118.986C117.136 119.162 117.467 119.25 117.867 119.25ZM127.186 114.92L126.282 115.176C126.225 115.026 126.142 114.879 126.031 114.737C125.923 114.592 125.775 114.473 125.588 114.379C125.4 114.286 125.16 114.239 124.868 114.239C124.467 114.239 124.133 114.331 123.866 114.516C123.602 114.697 123.47 114.929 123.47 115.21C123.47 115.46 123.561 115.658 123.743 115.803C123.924 115.947 124.208 116.068 124.595 116.165L125.566 116.403C126.152 116.545 126.588 116.763 126.875 117.055C127.162 117.345 127.305 117.719 127.305 118.176C127.305 118.551 127.197 118.886 126.981 119.182C126.768 119.477 126.47 119.71 126.086 119.881C125.703 120.051 125.257 120.136 124.748 120.136C124.081 120.136 123.528 119.991 123.091 119.702C122.653 119.412 122.376 118.989 122.26 118.432L123.214 118.193C123.305 118.545 123.477 118.81 123.73 118.986C123.985 119.162 124.319 119.25 124.731 119.25C125.2 119.25 125.572 119.151 125.848 118.952C126.126 118.75 126.265 118.509 126.265 118.227C126.265 118 126.186 117.81 126.027 117.656C125.868 117.5 125.623 117.384 125.294 117.307L124.203 117.051C123.603 116.909 123.163 116.689 122.882 116.391C122.603 116.089 122.464 115.713 122.464 115.261C122.464 114.892 122.568 114.565 122.775 114.281C122.985 113.997 123.271 113.774 123.632 113.612C123.995 113.45 124.407 113.369 124.868 113.369C125.515 113.369 126.024 113.511 126.393 113.795C126.765 114.08 127.029 114.455 127.186 114.92Z" fill="#999999"/>
</g>
<defs>
<filter id="filter0_d_1551_1688" x="0" y="0" width="304" height="163" filterUnits="userSpaceOnUse" color-interpolation-filters="sRGB">
<feFlood flood-opacity="0" result="BackgroundImageFix"/>
<feColorMatrix in="SourceAlpha" type="matrix" values="0 0 0 0 0 0 0 0 0 0 0 0 0 0 0 0 0 0 127 0" result="hardAlpha"/>
<feOffset dy="4"/>
<feGaussianBlur stdDeviation="10"/>
<feComposite in2="hardAlpha" operator="out"/>
<feColorMatrix type="matrix" values="0 0 0 0 0 0 0 0 0 0 0 0 0 0 0 0 0 0 0.15 0"/>
<feBlend mode="normal" in2="BackgroundImageFix" result="effect1_dropShadow_1551_1688"/>
<feBlend mode="normal" in="SourceGraphic" in2="effect1_dropShadow_1551_1688" result="shape"/>
</filter>
</defs>
</svg>
